Coordinates
version=1
nRows=14
nColumns=28
inDegrees=yes

Units are S.I. units (second, meters, Newtons, ...)
If the header above contains a line with 'inDegrees', this indicates whether rotational values are in degrees (yes) or radians (no).

endheader
time	pelvis_tilt	pelvis_list	pelvis_rotation	pelvis_tx	pelvis_ty	pelvis_tz	hip_flexion_r	hip_adduction_r	hip_rotation_r	knee_angle_r	knee_angle_r_ie	knee_angle_r_vv	ankle_angle_r	subtalar_angle_r	mtp_angle_r	hip_flexion_l	hip_adduction_l	hip_rotation_l	knee_angle_l	knee_angle_l_ie	knee_angle_l_vv	ankle_angle_l	subtalar_angle_l	mtp_angle_l	lumbar_extension	lumbar_bending	lumbar_rotation
      4.74000000	      2.22664045	      1.02587409	     -1.09856203	     -0.30853516	      1.20157121	      0.44274080	     -5.91798001	      2.64701569	     -3.64301171	      0.29075374	      0.03004000	      0.08515872	      6.68521882	     -5.50721815	      0.00000000	      3.36296627	     -0.82729503	      1.98847150	     -2.05235123	     12.12509866	     -2.72773797	      3.36904994	     -0.75236236	      0.00000000	    -20.02143834	     -1.40272584	     -7.13284761
      4.74500000	      2.35590691	      0.87545226	     -1.19588059	     -0.30671823	      1.20141430	      0.44247418	     -6.10402266	      2.77741689	     -3.73104798	      0.12537545	      0.23601150	      0.05506972	      6.94430753	     -5.44652216	      0.00000000	      3.00995701	     -0.93964935	      1.36042260	     -1.81886658	     11.82319523	     -2.74003722	      3.22957120	     -0.73038878	      0.00000000	    -19.93964864	     -1.29537371	     -7.10742653
      4.75000000	      2.41518338	      0.67989880	     -1.28085716	     -0.30493956	      1.20113877	      0.44220127	     -6.18881585	      2.96873995	     -3.73439212	     -0.08124563	      0.33638111	      0.00032811	      7.18965666	     -5.36410699	      0.00000000	      2.74103709	     -1.10544660	      0.76348636	     -1.60985539	     10.84258852	     -2.75186097	      3.00604846	     -1.71130945	      0.00000000	    -19.77325055	     -1.13033229	     -7.11642059
      4.75500000	      2.51296538	      0.49184812	     -1.35886415	     -0.30316534	      1.20091109	      0.44189045	     -6.29676116	      3.15196899	     -3.78564154	     -0.32221034	      0.50827728	     -0.05479494	      7.43388296	     -5.33416825	      0.00000000	      2.42225561	     -1.26876764	      0.35653336	     -1.45514566	     10.58176215	     -2.75709630	      3.13939756	     -1.71690900	      0.00000000	    -19.65225396	     -0.97650514	     -7.11116153
      4.76000000	      2.60695978	      0.31360842	     -1.43940520	     -0.30143827	      1.20068542	      0.44155131	     -6.37364701	      3.32892587	     -3.79324652	     -0.60495214	      0.64839055	     -0.12741220	      7.67051696	     -5.32999020	      0.00000000	      2.11158407	     -1.41901490	      0.03468970	     -1.32502052	     10.27420575	     -2.74167548	      3.33052359	     -1.81716059	      0.00000000	    -19.52605799	     -0.82792447	     -7.15237909
      4.76500000	      2.70113693	      0.13431081	     -1.51253522	     -0.29974586	      1.20046895	      0.44121060	     -6.42352536	      3.51709922	     -3.76816409	     -0.93890366	      0.79110379	     -0.21882255	      7.92230038	     -5.36220396	      0.00000000	      1.80077749	     -1.57595694	     -0.20307071	     -1.18988670	      9.82556495	     -2.72770332	      3.41814846	     -2.21100044	      0.00000000	    -19.40446361	     -0.67940282	     -7.20191641
      4.77000000	      2.77921662	     -0.01697410	     -1.58185780	     -0.29813522	      1.20025717	      0.44084890	     -6.41983736	      3.67556010	     -3.66419835	     -1.33072769	      0.85219517	     -0.30655118	      8.18204057	     -5.42146581	      0.00000000	      1.52255629	     -1.72557896	     -0.18764072	     -1.10222032	      9.81018274	     -2.76678532	      3.66440384	     -2.32747895	      0.00000000	    -19.27304683	     -0.56850113	     -7.26070014
      4.77500000	      2.86394686	     -0.14997887	     -1.65860723	     -0.29654661	      1.20008670	      0.44047018	     -6.40282993	      3.82098247	     -3.54325327	     -1.75519290	      0.92153663	     -0.41895123	      8.43745287	     -5.47429357	      0.00000000	      1.23481597	     -1.84647481	     -0.14490117	     -0.99796421	      9.81025456	     -2.77898515	      3.86115845	     -2.42953550	      0.00000000	    -19.14462938	     -0.46687502	     -7.34661191
      4.78000000	      3.00019535	     -0.25667859	     -1.71054573	     -0.29502312	      1.19999080	      0.44012719	     -6.41500766	      3.95371736	     -3.46821775	     -2.21866933	      0.98669153	     -0.53919410	      8.71507760	     -5.57757062	      0.00000000	      0.89961897	     -1.97536507	      0.14035529	     -0.88289941	      9.80885796	     -2.87606575	      3.92524799	     -2.93678642	      0.00000000	    -19.08730841	     -0.40866407	     -7.43487280
      4.78500000	      3.10793780	     -0.30290029	     -1.76605587	     -0.29359048	      1.19991740	      0.43974727	     -6.35595766	      4.02036786	     -3.30987122	     -2.74627478	      0.99881252	     -0.66140836	      9.04435967	     -5.68489954	      0.00000000	      0.61522271	     -2.01685342	      0.34488227	     -0.78900667	      9.83281118	     -2.91438335	      4.04808627	     -3.13385816	      0.00000000	    -19.00466525	     -0.41463357	     -7.53229922
      4.79000000	      3.28281737	     -0.32420299	     -1.82615568	     -0.29218455	      1.19998192	      0.43940457	     -6.35119329	      4.06132864	     -3.11262509	     -3.29529340	      0.96634127	     -0.78205903	      9.31364774	     -5.78607963	      0.00000000	      0.24986313	     -2.06282073	      0.74051061	     -0.65426991	      9.98084692	     -3.03551882	      3.95352505	     -3.63622066	      0.00000000	    -19.00319052	     -0.44893689	     -7.68530794
      4.79500000	      3.42233889	     -0.29156859	     -1.90695165	     -0.29082361	      1.20004430	      0.43910254	     -6.27377601	      4.04586246	     -2.91558608	     -3.90555065	      0.96510557	     -0.90285437	      9.67065370	     -5.88929327	      0.00000000	     -0.06962351	     -2.03388311	      0.95196118	     -0.52787215	     10.06979732	     -3.09852362	      3.98667987	     -3.79030564	      0.00000000	    -18.95487249	     -0.54790226	     -7.82842936
      4.80000000	      3.60769447	     -0.23900884	     -1.96297705	     -0.28953177	      1.20019145	      0.43881368	     -6.22619661	      4.01939973	     -2.65683954	     -4.52890088	      0.82278839	     -1.02388990	      9.93592373	     -6.00471345	      0.00000000	     -0.42030407	     -2.01538147	      1.49839683	     -0.41185659	     10.41870389	     -3.23663937	      3.82963384	     -4.21315515	      0.00000000	    -18.98542406	     -0.68695763	     -7.96447655
      4.80500000	      3.74634498	     -0.18930461	     -2.03748763	     -0.28826863	      1.20030276	      0.43856412	     -6.09761961	      3.99954909	     -2.40611399	     -5.20839942	      0.69980250	     -1.14933941	     10.24486641	     -6.09239771	      0.00000000	     -0.71067147	     -1.99774247	      1.90323223	     -0.31563805	     10.67041976	     -3.36315727	      3.74091617	     -4.55039087	      0.00000000	    -18.96259280	     -0.81134893	     -8.11653499
